<svg id="Layer_1" data-name="Layer 1" xmlns="http://www.w3.org/2000/svg" width="475" height="99" viewBox="0 0 475 99"><defs><style>.cls-1{fill:#2e833d;}.cls-2{fill:#b44647;}.cls-3{fill:#3f3fe6;stroke:#b44647;stroke-miterlimit:10;stroke-width:4px;}</style></defs><title>elfresco_logo</title><path class="cls-1" d="M116.8,32.654s-7.994-2.565.1-28.463c0,0,4.066,23.2,1.93,29.206Z"/><path class="cls-2" d="M132.334,42.837a.157.157,0,0,0,.006-.028c.045-.4-.172-8.031-11.492-9.3-12.673-1.416-8.822,8.741-8.822,8.741s1.312,8.3,2.566,17.661c1.249,9.343,11.816,28.661,21.961,31.5a.681.681,0,0,1,.148.051c.848.473,9.49,5.224,17.2,6.522a.545.545,0,0,0,.107.008l11.334-.186a.4.4,0,0,0,.139-.772c-6.067-2.664-24.3-10.463-26.361-13.137-2.568-2.857-3.97-4.736-7.134-16.834-3.1-11.861-1.511-17.01.347-24.234"/><path class="cls-3" d="M20.152,41.726H40.1v13H20.152V81.377h25.1v13H5.621v-91H45.25v13h-25.1Z"/><path class="cls-3" d="M54.229,3.374H68.76v78H92.669v13H54.229Z"/><path class="cls-3" d="M195.432,43.806h18.757v13H195.432V94.377H180.9v-91h38.44v13H195.432Z"/><path class="cls-3" d="M256.721,94.377c-.793-2.34-1.321-3.77-1.321-11.18V68.9c0-8.45-2.906-11.57-9.511-11.57H240.87V94.377H226.339v-91h21.928c15.059,0,21.531,6.89,21.531,20.931v7.15c0,9.36-3.038,15.471-9.51,18.461,7.265,2.99,9.643,9.88,9.643,19.371v14.04c0,4.42.132,7.67,1.585,11.05Zm-15.851-78V44.326h5.68c5.415,0,8.718-2.341,8.718-9.621v-8.97c0-6.5-2.246-9.36-7.4-9.36Z"/><path class="cls-3" d="M293.969,41.726h19.946v13H293.969V81.377h25.1v13H279.438v-91h39.629v13h-25.1Z"/><path class="cls-3" d="M347.6,2.334c14.134,0,21.4,8.32,21.4,22.881v2.86H355.258v-3.77c0-6.5-2.642-8.971-7.265-8.971s-7.265,2.471-7.265,8.971c0,18.72,28.4,22.231,28.4,48.232,0,14.56-7.4,22.88-21.664,22.88S325.8,87.1,325.8,72.537V66.946h13.738v6.5c0,6.5,2.906,8.84,7.529,8.84s7.53-2.34,7.53-8.84c0-18.721-28.4-22.231-28.4-48.232C326.2,10.654,333.462,2.334,347.6,2.334Z"/><path class="cls-3" d="M419.585,60.446V72.537c0,14.56-7.4,22.88-21.663,22.88s-21.664-8.32-21.664-22.88V25.215c0-14.561,7.4-22.881,21.664-22.881s21.663,8.32,21.663,22.881v8.84H405.847v-9.75c0-6.5-2.906-8.971-7.529-8.971s-7.529,2.471-7.529,8.971V73.447c0,6.5,2.906,8.84,7.529,8.84s7.529-2.34,7.529-8.84v-13Z"/><path class="cls-3" d="M427.243,25.215c0-14.561,7.794-22.881,22.06-22.881s22.06,8.32,22.06,22.881V72.537c0,14.56-7.794,22.88-22.06,22.88s-22.06-8.32-22.06-22.88Zm14.53,48.232c0,6.5,2.907,8.97,7.53,8.97s7.529-2.47,7.529-8.97V24.305c0-6.5-2.906-8.971-7.529-8.971s-7.53,2.471-7.53,8.971Z"/></svg>
