<?xml version="1.0" standalone="no"?>
<!DOCTYPE svg PUBLIC "-//W3C//DTD SVG 20010904//EN"
 "http://www.w3.org/TR/2001/REC-SVG-20010904/DTD/svg10.dtd">
<svg version="1.0" xmlns="http://www.w3.org/2000/svg"
 width="100.000000pt" height="100.000000pt" viewBox="0 0 100.000000 100.000000"
 preserveAspectRatio="xMidYMid meet">
<metadata>
Created by potrace 1.11, written by Peter Selinger 2001-2013
</metadata>
<g transform="translate(0.000000,100.000000) scale(0.100000,-0.100000)"
fill="#000000" stroke="none">
<path d="M260 950 c-11 -41 -19 -88 -24 -144 -4 -37 13 -106 26 -106 6 0 -4
-13 -22 -30 -17 -16 -29 -33 -26 -38 2 -4 7 -30 10 -57 18 -151 36 -228 72
-299 54 -109 108 -165 199 -209 98 -47 145 -59 225 -55 58 3 62 4 40 15 -272
123 -281 131 -320 274 -28 106 -33 174 -17 237 13 46 12 56 -2 85 -16 32 -49
54 -89 60 -12 2 -23 5 -25 8 -3 2 -7 51 -11 109 -6 105 -15 182 -21 189 -2 1
-9 -16 -15 -39z"/>
</g>
</svg>
